<svg width="32" height="32" viewBox="0 0 32 32" fill="none" xmlns="http://www.w3.org/2000/svg">
  <!-- Gradient background -->
  <defs>
    <linearGradient id="bgGradient" x1="0%" y1="0%" x2="100%" y2="100%">
      <stop offset="0%" style="stop-color:#0ea5e9;stop-opacity:1" />
      <stop offset="100%" style="stop-color:#0284c7;stop-opacity:1" />
    </linearGradient>
    <linearGradient id="chartGradient" x1="0%" y1="0%" x2="100%" y2="0%">
      <stop offset="0%" style="stop-color:#10b981;stop-opacity:1" />
      <stop offset="100%" style="stop-color:#059669;stop-opacity:1" />
    </linearGradient>
  </defs>
  
  <!-- Background circle with gradient -->
  <circle cx="16" cy="16" r="15" fill="url(#bgGradient)" stroke="#0284c7" stroke-width="1.5"/>
  
  <!-- Chart area with gradient fill -->
  <path d="M8 20 L12 16 L16 18 L20 12 L24 14 L28 8 L28 24 L8 24 Z" 
        fill="url(#chartGradient)" 
        opacity="0.3"/>
  
  <!-- Chart line representing yield growth -->
  <path d="M8 20 L12 16 L16 18 L20 12 L24 14 L28 8" 
        stroke="white" 
        stroke-width="2.5" 
        stroke-linecap="round" 
        stroke-linejoin="round"
        fill="none"/>
  
  <!-- Yield percentage symbol with glow effect -->
  <text x="16" y="26" 
        font-family="Arial, sans-serif" 
        font-size="9" 
        font-weight="bold" 
        text-anchor="middle" 
        fill="white"
        filter="drop-shadow(0 0 2px rgba(255,255,255,0.5))">%</text>
  
  <!-- Small dots on the chart line -->
  <circle cx="12" cy="16" r="1.5" fill="white"/>
  <circle cx="16" cy="18" r="1.5" fill="white"/>
  <circle cx="20" cy="12" r="1.5" fill="white"/>
  <circle cx="24" cy="14" r="1.5" fill="white"/>
  
  <!-- Small yield indicator arrow -->
  <path d="M22 6 L24 8 L26 6" 
        stroke="#10b981" 
        stroke-width="2" 
        stroke-linecap="round" 
        stroke-linejoin="round"
        fill="none"/>
</svg> 